Coordinates
version=1
nRows=13
nColumns=38
inDegrees=yes

Units are S.I. units (second, meters, Newtons, ...)
Angles are in degrees.

endheader
time	pelvis_tilt	pelvis_list	pelvis_rotation	pelvis_tx	pelvis_ty	pelvis_tz	hip_flexion_r	hip_adduction_r	hip_rotation_r	knee_angle_r	ankle_angle_r	subtalar_angle_r	mtp_angle_r	hip_flexion_l	hip_adduction_l	hip_rotation_l	knee_angle_l	ankle_angle_l	subtalar_angle_l	mtp_angle_l	lumbar_extension	lumbar_bending	lumbar_rotation	arm_flex_r	arm_add_r	arm_rot_r	elbow_flex_r	pro_sup_r	wrist_flex_r	wrist_dev_r	arm_flex_l	arm_add_l	arm_rot_l	elbow_flex_l	pro_sup_l	wrist_flex_l	wrist_dev_l
      0.01000000	     -0.40916762	     11.06898509	    150.48366501	     -1.89706003	      0.72134560	     -0.23332443	     15.26419335	     21.87864627	   -175.43575455	     81.71666660	    -30.34929961	    -35.87536488	      0.00000000	    -46.04219651	     33.27698892	     46.31027833	    -29.02164140	    -78.72776802	      5.97672331	      0.00000000	    -52.71657392	    -12.90032908	   -148.92302894	   -155.61854977	     -6.86796992	    -18.90185949	    100.52275517	     86.51662706	      0.00000000	      0.00000000	   -157.87194308	     -6.39690643	    -41.99912676	     79.70143641	     85.94366927	      0.00000000	      0.00000000
      0.02000000	     -0.54518723	     10.71460638	    151.21302779	     -1.88783541	      0.71970726	     -0.23294071	     16.52583896	     21.72327918	   -176.41894410	     82.41521001	    -29.84642181	    -36.20598981	      0.00000000	    -47.29843039	     33.15634965	     49.50277304	    -28.31233083	    -78.50081253	      6.40084426	      0.00000000	    -52.63348552	    -12.62472154	   -149.03523648	   -155.50632439	     -6.62490677	    -18.27272413	    102.00555027	     86.51662706	      0.00000000	      0.00000000	   -157.80337288	     -6.63369980	    -42.89435304	     79.44580716	     85.94366927	      0.00000000	      0.00000000
      0.03000000	     -0.72637035	     10.33966660	    152.05450612	     -1.87872146	      0.71768540	     -0.23232059	     17.75313221	     21.48310228	   -177.49569618	     83.15863958	    -29.45567578	    -36.40724052	      0.00000000	    -48.58049017	     32.95765396	     52.66912362	    -27.68663145	    -78.29373261	      6.76573815	      0.00000000	    -52.60713806	    -12.26568354	   -149.41570491	   -155.54934149	     -6.50737838	    -17.77759366	    103.75465161	     86.51662706	      0.00000000	      0.00000000	   -157.70962724	     -6.91143100	    -43.44034513	     78.91510534	     85.94366927	      0.00000000	      0.00000000
      0.04000000	     -0.84135203	     10.03180058	    152.79449994	     -1.86941748	      0.71561818	     -0.23195649	     19.01839692	     21.36261295	   -178.47262177	     83.87353409	    -28.96714069	    -36.69469645	      0.00000000	    -49.80685529	     32.68948362	     55.78290873	    -27.00908575	    -78.04906166	      7.11800946	      0.00000000	    -52.53588546	    -11.95376726	   -149.62335933	   -155.47121438	     -6.33890647	    -17.23885257	    105.31432779	     86.51662706	      0.00000000	      0.00000000	   -157.64382523	     -7.14242978	    -44.14275489	     78.78644606	     85.94366927	      0.00000000	      0.00000000
      0.05000000	    -12.74704554	     -2.36723283	    143.01307510	     -1.89083047	      0.75122128	     -0.24471480	      9.59748926	      4.15329455	   -162.62473984	     81.86156231	    -30.97560121	    -36.34055550	      0.00000000	    -28.74604685	     53.32896773	     33.87168033	    -43.16248639	    -81.83803153	     18.85014709	      0.00000000	    -59.09259710	    -31.10517009	   -157.61136547	   -150.39934635	     -7.24988460	    -17.03645920	    108.03552357	     86.51662706	      0.00000000	      0.00000000	   -155.21796905	     -8.62081627	    -42.79962643	     83.95373282	     85.94366927	      0.00000000	      0.00000000
      0.06000000	    -12.72645701	     -2.28563548	    143.37110238	     -1.88105416	      0.74895746	     -0.24485172	     10.44928479	      4.87240662	   -163.04483459	     82.68383556	    -30.48978118	    -36.72410508	      0.00000000	    -30.88305224	     53.36588136	     36.86701940	    -42.03769499	    -81.68516300	     19.11354093	      0.00000000	    -58.98442056	    -30.78718260	   -157.01454451	   -150.08370422	     -6.96865323	    -16.33721046	    109.36799740	     86.51662706	      0.00000000	      0.00000000	   -155.18104331	     -8.95734911	    -43.57583329	     83.55250058	     85.94366927	      0.00000000	      0.00000000
      0.07000000	    -12.86201495	     -2.54662095	    143.79161826	     -1.87161284	      0.74658942	     -0.24493246	     11.38509053	      5.10261821	   -163.49723103	     83.51874275	    -30.04105375	    -37.09554680	      0.00000000	    -33.28352365	     53.86091290	     40.21681411	    -41.13733091	    -81.47631909	     18.95153888	      0.00000000	    -58.99502662	    -30.63155594	   -156.95270028	   -149.80421961	     -6.78726284	    -15.77097078	    110.74137105	     86.51662706	      0.00000000	      0.00000000	   -155.03108230	     -9.27577338	    -44.19722370	     83.24009503	     85.94366927	      0.00000000	      0.00000000
      0.08000000	    -12.85948377	     -2.55427388	    144.32496663	     -1.86184551	      0.74400736	     -0.24503371	     12.27961888	      5.63218247	   -164.13849378	     84.30418593	    -29.54099604	    -37.43299078	      0.00000000	    -35.50642884	     53.77856076	     43.36242968	    -40.17268040	    -81.28955199	     19.11551105	      0.00000000	    -58.98268395	    -30.19665039	   -156.85036709	   -149.63848395	     -6.72668058	    -15.41997131	    112.16398764	     86.51662706	      0.00000000	      0.00000000	   -154.90549223	     -9.47868840	    -44.61476796	     82.67784246	     85.94366927	      0.00000000	      0.00000000
      0.09000000	    -20.23591768	    -14.42151980	    138.99304740	     -1.86360865	      0.75925463	     -0.24951665	     14.33802816	     -9.48360374	   -156.37250151	     83.87486107	    -30.54962230	    -37.23266829	      0.00000000	      9.89924933	     63.87529013	      1.52918271	    -59.39357143	    -71.56057543	     -8.56963624	      0.00000000	    -65.12608608	    -41.59236455	   -169.28373499	   -147.14234514	     -7.35724666	    -15.73534776	    111.87757830	     86.51662706	      0.00000000	      0.00000000	   -153.40877483	    -10.22839338	    -43.45730111	     84.11108798	     85.94366927	      0.00000000	      0.00000000
      0.10000000	    -20.41931438	    -14.56388382	    139.18677704	     -1.85405138	      0.75700067	     -0.24985847	     15.01445863	     -9.06599152	   -156.45220625	     84.69019924	    -30.09966273	    -37.61411836	      0.00000000	      7.23824311	     65.15982283	      4.38192183	    -58.25343174	    -71.77404226	     -8.00786398	      0.00000000	    -65.19804271	    -41.51305186	   -169.15602311	   -146.79187676	     -7.24997064	    -15.34656946	    113.09495813	     86.51662706	      0.00000000	      0.00000000	   -153.23082701	    -10.52501287	    -43.79174313	     83.78211781	     85.94366927	      0.00000000	      0.00000000
      0.11000000	    -20.58130211	    -14.60933572	    139.37722469	     -1.84432117	      0.75492287	     -0.25030564	     15.59435201	     -8.53823557	   -156.56099085	     85.44058633	    -29.58778409	    -38.02663396	      0.00000000	      4.66345488	     66.16126073	      6.97568649	    -57.33008013	    -72.01791907	     -7.58705530	      0.00000000	    -65.25232037	    -41.38966121	   -168.93177915	   -146.42935145	     -7.16359332	    -14.94950883	    114.22436308	     86.51662706	      0.00000000	      0.00000000	   -153.00673019	    -10.83440240	    -44.15808686	     83.37892747	     85.94366927	      0.00000000	      0.00000000
      0.12000000	    -20.80415052	    -14.81601902	    139.55966265	     -1.83482090	      0.75267392	     -0.25071782	     16.23033848	     -8.22416072	   -156.65425121	     86.18680807	    -29.12263201	    -38.40043823	      0.00000000	      1.97553999	     67.32515385	      9.86104198	    -56.43413308	    -72.18744975	     -7.20098736	      0.00000000	    -65.35594552	    -41.32254703	   -168.97397768	   -146.10443453	     -7.08632000	    -14.73431063	    115.38799990	     86.51662706	      0.00000000	      0.00000000	   -152.76383219	    -11.12238219	    -44.31721846	     83.00801717	     85.94366927	      0.00000000	      0.00000000
      0.13000000	    -21.02258418	    -14.95930117	    139.50437139	     -1.82479117	      0.75047174	     -0.25139868	     16.85974672	     -7.75287365	   -156.50741058	     86.93352422	    -28.54331648	    -38.95518793	      0.00000000	      0.06223699	     68.22200929	     11.76277775	    -55.75721633	    -72.35775416	     -6.85713977	      0.00000000	    -65.36862818	    -41.45005205	   -168.74022834	   -145.67704280	     -6.90527449	    -14.42662684	    116.31055712	     86.51662706	      0.00000000	      0.00000000	   -152.48403728	    -11.47001726	    -44.61110906	     82.63686988	     85.94366927	      0.00000000	      0.00000000
